<?xml version="1.0" standalone="no"?>
<!DOCTYPE svg PUBLIC "-//W3C//DTD SVG 20010904//EN"
 "http://www.w3.org/TR/2001/REC-SVG-20010904/DTD/svg10.dtd">
<svg version="1.0" xmlns="http://www.w3.org/2000/svg"
 width="512.000000pt" height="512.000000pt" viewBox="0 0 512.000000 512.000000"
 preserveAspectRatio="xMidYMid meet">
<metadata>
Created by potrace 1.14, written by Peter Selinger 2001-2017
</metadata>
<g transform="translate(0.000000,512.000000) scale(0.100000,-0.100000)"
fill="#000000" stroke="none">
<path d="M2379 5116 c-2 -2 -35 -6 -74 -9 -168 -15 -413 -69 -590 -130 -177
-62 -261 -101 -490 -231 -51 -29 -182 -123 -272 -194 -190 -152 -382 -363
-523 -571 -174 -260 -319 -600 -374 -881 -44 -224 -51 -299 -50 -550 0 -113 3
-232 8 -265 4 -33 10 -76 12 -95 3 -19 6 -44 8 -55 2 -11 7 -38 11 -60 9 -52
62 -259 80 -310 260 -771 843 -1363 1602 -1626 135 -46 297 -87 418 -105 22
-3 51 -8 65 -10 79 -13 176 -18 345 -19 189 0 312 9 425 30 14 3 41 7 60 10
238 39 576 165 807 302 266 157 471 331 687 583 129 151 275 385 360 580 61
138 62 141 92 230 35 106 28 83 64 230 34 144 39 172 57 335 12 104 8 490 -5
570 -6 39 -14 86 -17 105 -2 19 -7 46 -10 60 -3 14 -10 45 -15 70 -52 262
-188 589 -343 829 -319 493 -782 855 -1342 1049 -70 25 -284 81 -335 88 -19 3
-46 7 -60 9 -14 3 -41 7 -60 10 -19 3 -53 7 -75 11 -44 6 -460 15 -466 10z
m1448 -1324 c74 -40 100 -116 65 -195 -15 -34 -31 -51 -61 -66 -38 -20 -56
-21 -381 -21 l-340 0 0 -843 c0 -948 -4 -901 74 -980 95 -98 252 -101 347 -6
60 60 72 91 76 204 5 113 21 162 65 195 67 49 165 31 212 -40 25 -39 26 -44
23 -167 -3 -106 -8 -139 -29 -195 -61 -162 -186 -285 -347 -340 -88 -30 -249
-32 -331 -4 -170 57 -297 181 -362 352 l-23 59 -3 883 -3 882 -249 0 -250 0
-1 -752 c0 -414 -2 -770 -5 -792 -20 -197 -149 -407 -324 -525 -113 -77 -227
-117 -365 -128 -70 -5 -86 -3 -123 16 -47 24 -82 80 -82 132 0 18 11 51 24 74
30 50 75 72 162 79 196 16 348 146 400 341 11 40 14 208 14 803 l0 753 -160
-1 c-223 -2 -297 -27 -405 -135 -84 -83 -129 -183 -134 -295 -5 -118 -88 -188
-189 -161 -87 23 -120 89 -108 216 22 215 147 424 325 544 89 59 203 106 286
118 22 3 42 7 44 9 2 2 481 4 1065 3 982 0 1063 -1 1093 -17z"/>
</g>
</svg>
